<?xml version="1.0" encoding="UTF-8"?>
<!-- Generator: Adobe Illustrator 24.2.1, SVG Export Plug-In . SVG Version: 6.00 Build 0)  -->
<svg xmlns="http://www.w3.org/2000/svg" xmlns:xlink="http://www.w3.org/1999/xlink" version="1.1" id="Layer_1" x="0px" y="0px" width="180px" height="60px" viewBox="0 0 180 60" style="enable-background:new 0 0 180 60;" xml:space="preserve">
<style type="text/css">
	.st0{fill:#1E1E1E;}
	.st1{fill:#0070EF;}
</style>
<g>
	<path class="st0" d="M-435.2,188.7v-23h15v3.4H-431v6.3h9.8v3.3h-9.8v6.6h10.8v3.4H-435.2z"></path>
	<path class="st0" d="M-416.3,188.7v-16.3h3.7l0.3,2.8c0.5-1,1.2-1.7,2.2-2.3c1-0.6,2.1-0.9,3.4-0.9c2,0,3.6,0.6,4.7,1.9   c1.1,1.3,1.7,3.1,1.7,5.6v9.2h-4.2v-8.8c0-1.4-0.3-2.5-0.9-3.2c-0.6-0.7-1.5-1.1-2.7-1.1c-1.2,0-2.2,0.4-2.9,1.2   c-0.8,0.8-1.1,2-1.1,3.5v8.4H-416.3z"></path>
	<path class="st0" d="M-390.7,189.1c-1.4,0-2.6-0.2-3.4-0.7c-0.9-0.4-1.6-1-2-1.8c-0.4-0.7-0.7-1.6-0.7-2.5c0-1.5,0.6-2.7,1.8-3.7   c1.2-0.9,3-1.4,5.3-1.4h4.1v-0.4c0-1.1-0.3-1.9-1-2.5s-1.4-0.8-2.4-0.8c-0.9,0-1.6,0.2-2.2,0.6c-0.6,0.4-1,1-1.2,1.8h-4.1   c0.1-1.2,0.5-2.2,1.2-3.1c0.7-0.9,1.6-1.5,2.7-2c1.1-0.5,2.3-0.7,3.7-0.7c2.3,0,4.1,0.6,5.5,1.7c1.3,1.2,2,2.8,2,4.9v10h-3.6   l-0.4-2.6c-0.5,0.9-1.2,1.6-2,2.2C-388.2,188.8-389.3,189.1-390.7,189.1z M-389.7,185.8c1.2,0,2.1-0.4,2.8-1.2   c0.7-0.8,1.1-1.8,1.3-2.9h-3.6c-1.1,0-1.9,0.2-2.4,0.6c-0.5,0.4-0.7,0.9-0.7,1.5c0,0.6,0.2,1.1,0.7,1.5   C-391.2,185.6-390.5,185.8-389.7,185.8z"></path>
	<path class="st0" d="M-367.7,189.1c-1.2,0-2.3-0.2-3.2-0.7s-1.7-1.1-2.2-1.9l-0.5,2.2h-3.7V165h4.2v9.7c0.5-0.7,1.2-1.4,2.1-1.9   c0.9-0.5,2-0.8,3.4-0.8c1.5,0,2.9,0.4,4.1,1.1s2.2,1.8,2.9,3.1c0.7,1.3,1.1,2.8,1.1,4.4c0,1.6-0.3,3.1-1.1,4.4   c-0.7,1.3-1.7,2.3-2.9,3C-364.8,188.7-366.2,189.1-367.7,189.1z M-368.6,185.4c1.3,0,2.4-0.4,3.3-1.3c0.9-0.9,1.3-2.1,1.3-3.5   c0-1.4-0.4-2.6-1.3-3.5c-0.9-0.9-2-1.4-3.3-1.4c-1.4,0-2.5,0.5-3.3,1.4c-0.9,0.9-1.3,2.1-1.3,3.5c0,1.4,0.4,2.6,1.3,3.5   C-371.1,184.9-369.9,185.4-368.6,185.4z"></path>
	<path class="st0" d="M-355.9,188.7V165h4.2v23.7H-355.9z"></path>
	<path class="st0" d="M-345.2,169.8c-0.8,0-1.4-0.2-1.9-0.7c-0.5-0.5-0.7-1-0.7-1.7s0.2-1.3,0.7-1.7c0.5-0.4,1.1-0.7,1.9-0.7   c0.8,0,1.4,0.2,1.9,0.7c0.5,0.4,0.7,1,0.7,1.7s-0.2,1.3-0.7,1.7C-343.8,169.6-344.4,169.8-345.2,169.8z M-347.3,188.7v-16.3h4.2   v16.3H-347.3z"></path>
	<path class="st0" d="M-338.7,188.7v-16.3h3.7l0.3,2.8c0.5-1,1.2-1.7,2.2-2.3c1-0.6,2.1-0.9,3.4-0.9c2,0,3.6,0.6,4.7,1.9   c1.1,1.3,1.7,3.1,1.7,5.6v9.2h-4.2v-8.8c0-1.4-0.3-2.5-0.9-3.2c-0.6-0.7-1.5-1.1-2.7-1.1c-1.2,0-2.2,0.4-2.9,1.2   c-0.8,0.8-1.1,2-1.1,3.5v8.4H-338.7z"></path>
	<path class="st0" d="M-311.8,183.8c-0.8,0-1.5-0.1-2.2-0.3l-1.2,1.2c0.4,0.2,0.9,0.4,1.5,0.5c0.6,0.1,1.7,0.3,3.1,0.4   c2.2,0.2,3.7,0.7,4.7,1.5c1,0.8,1.5,2,1.5,3.4c0,1-0.3,1.9-0.8,2.7c-0.5,0.9-1.3,1.6-2.4,2.1c-1.1,0.5-2.5,0.8-4.2,0.8   c-2.3,0-4.2-0.4-5.6-1.3c-1.4-0.9-2.1-2.2-2.1-3.9c0-1.5,0.7-2.7,2.1-3.8c-0.4-0.2-0.8-0.4-1.1-0.6c-0.3-0.2-0.6-0.4-0.8-0.7v-0.8   l2.9-3c-1.3-1.1-1.9-2.6-1.9-4.3c0-1.1,0.3-2.1,0.8-3c0.5-0.9,1.3-1.6,2.3-2.1c1-0.5,2.2-0.8,3.6-0.8c0.9,0,1.8,0.1,2.6,0.4h6.2   v2.6l-2.8,0.2c0.4,0.8,0.7,1.8,0.7,2.8c0,1.1-0.3,2.1-0.8,3c-0.5,0.9-1.3,1.6-2.3,2.1C-309.3,183.5-310.4,183.8-311.8,183.8z    M-315.7,190.7c0,0.8,0.4,1.4,1.1,1.8c0.8,0.4,1.7,0.6,2.8,0.6c1.1,0,1.9-0.2,2.6-0.6c0.7-0.4,1-1,1-1.7c0-0.6-0.2-1.1-0.6-1.5   c-0.4-0.4-1.3-0.6-2.5-0.7c-0.9-0.1-1.7-0.2-2.5-0.3c-0.6,0.3-1.1,0.7-1.4,1.1C-315.6,189.8-315.7,190.2-315.7,190.7z    M-311.8,180.6c0.9,0,1.6-0.2,2.1-0.7c0.6-0.5,0.8-1.1,0.8-2s-0.3-1.5-0.8-2c-0.6-0.5-1.3-0.7-2.1-0.7c-0.9,0-1.6,0.2-2.2,0.7   c-0.5,0.5-0.8,1.1-0.8,2s0.3,1.5,0.8,2C-313.4,180.3-312.7,180.6-311.8,180.6z"></path>
	<path class="st0" d="M-292.1,188.7v-23h4.2v23H-292.1z"></path>
	<path class="st0" d="M-275.7,189.1c-1.6,0-3-0.4-4.3-1.1c-1.3-0.7-2.3-1.7-3-3c-0.7-1.3-1.1-2.8-1.1-4.5c0-1.7,0.4-3.2,1.1-4.5   c0.7-1.3,1.7-2.3,3-3c1.3-0.7,2.7-1.1,4.3-1.1c1.6,0,3,0.4,4.2,1.1c1.3,0.7,2.3,1.7,3,3c0.7,1.3,1.1,2.8,1.1,4.5   c0,1.7-0.4,3.2-1.1,4.5c-0.7,1.3-1.7,2.3-3,3C-272.7,188.7-274.1,189.1-275.7,189.1z M-275.7,185.4c1.1,0,2-0.4,2.9-1.2   c0.8-0.8,1.2-2,1.2-3.7c0-1.6-0.4-2.8-1.2-3.7c-0.8-0.8-1.8-1.2-2.8-1.2c-1.1,0-2.1,0.4-2.9,1.2c-0.8,0.8-1.2,2-1.2,3.7   c0,1.6,0.4,2.8,1.2,3.7C-277.7,185-276.8,185.4-275.7,185.4z"></path>
	<path class="st0" d="M-258.2,188.7V169h-6.7v-3.4h17.6v3.4h-6.7v19.6H-258.2z"></path>
</g>
<path class="st0" d="M-585.5,118.2v-9l29.5-45.4h-29.2V54h42.8v9l-29.7,45.4h29.9v9.8H-585.5z"></path>
<path class="st0" d="M-509.9,119.3c-4.6,0-8.7-1-12.2-2.9c-3.5-2-6.3-4.7-8.3-8.3c-2-3.5-3-7.6-3-12.3c0-4.7,1-8.9,3-12.6  c2-3.7,4.7-6.5,8.3-8.6c3.5-2,7.7-3.1,12.4-3.1c4.5,0,8.4,1,11.8,2.9c3.4,2,6.1,4.6,8,8c1.9,3.4,2.9,7.2,2.9,11.3c0,0.7,0,1.4,0,2.1  c0,0.7-0.1,1.5-0.1,2.3h-34.6c0.2,3.5,1.5,6.3,3.7,8.3c2.2,2,4.9,3,8.1,3c2.4,0,4.4-0.5,6-1.6c1.6-1.1,2.8-2.5,3.6-4.2h11.9  c-0.9,2.9-2.3,5.5-4.3,7.8c-2,2.4-4.4,4.2-7.3,5.5C-502.9,118.6-506.2,119.3-509.9,119.3z M-509.8,81.1c-2.9,0-5.4,0.8-7.6,2.4  c-2.2,1.6-3.6,4.1-4.2,7.4h22.6c-0.2-3-1.3-5.4-3.3-7.2C-504.3,82-506.8,81.1-509.8,81.1z"></path>
<path class="st0" d="M-477.2,118.2V72.7h11.7V81c1.7-2.9,3.7-5,6.6-6.8c2.8-1.7,6.2-2.6,10-2.6V84h-3.3c-2.6,0-4.9,0.4-6.9,1.2  c-2,0.8-3.6,2.2-4.7,4.1c-1.1,2-1.7,4.7-1.7,8.2v20.7H-477.2z"></path>
<path class="st0" d="M-435.2,138.3l9.1-20l-19-45.6h12.7l12.7,32l13.3-32h12.5l-28.9,65.7H-435.2z"></path>
<path class="st0" d="M-386.1,118.2V72.7h11.7v6.9c1.5-2.4,3-4,5.6-5.6c2.7-1.6,5.8-2.4,9.4-2.4c5.6,0,10,1.8,13.1,5.3  c3.1,3.5,4.7,8.7,4.7,15.6v25.7h-11.7V93.6c0-3.9-0.8-6.9-2.4-9c-1.6-2.1-4.1-3.1-7.4-3.1c-3.3,0-6,1.2-8.1,3.5  c-2.1,2.3-3.2,5.6-3.2,9.7v23.5H-386.1z"></path>
<path class="st0" d="M-310.1,118.2c-4.8,0-8.6-1.2-11.5-3.5c-2.9-2.3-4.3-6.4-4.3-12.4V82.5h-7.8v-9.8h7.8V60.5h11.7v12.2h12.3v9.8  h-12.3v19.9c0,2.2,0.5,3.7,1.4,4.5c0.9,0.8,2.6,1.2,4.9,1.2h5.7v10H-310.1z"></path>
<path class="st0" d="M-291.8,118.2v-66h11.7v27.5c1.5-2.5,3.6-4.5,6.2-5.9c2.6-1.4,5.6-2.2,8.9-2.2c5.6,0,10,1.8,13.1,5.3  c3.1,3.5,4.6,8.7,4.6,15.6v25.7h-11.6V93.6c0-3.9-0.8-6.9-2.3-9c-1.6-2.1-4-3.1-7.4-3.1c-3.3,0-6,1.2-8.2,3.5  c-2.2,2.3-3.3,5.6-3.3,9.7v23.5H-291.8z"></path>
<g>
	<path class="st0" d="M-241.3,66.8v-9.9h3.7c0.8,0,1.5,0.1,2,0.4c0.5,0.3,0.9,0.6,1.2,1.1c0.3,0.5,0.4,1,0.4,1.5   c0,0.6-0.2,1.2-0.5,1.7c-0.3,0.5-0.8,0.9-1.5,1.1l2.1,4.2h-2.1l-1.8-3.9h-1.5v3.9H-241.3z M-239.4,61.6h1.7c0.6,0,1.1-0.1,1.3-0.4   c0.3-0.3,0.4-0.7,0.4-1.2c0-0.5-0.1-0.9-0.4-1.1c-0.3-0.3-0.7-0.4-1.4-0.4h-1.7V61.6z"></path>
</g>
<path class="st0" d="M-237.6,54c4.3,0,7.9,3.5,7.9,7.9s-3.5,7.9-7.9,7.9c-4.3,0-7.9-3.5-7.9-7.9S-242,54-237.6,54 M-237.6,52.2  c-5.4,0-9.7,4.3-9.7,9.7c0,5.4,4.3,9.7,9.7,9.7c5.4,0,9.7-4.3,9.7-9.7C-227.9,56.5-232.3,52.2-237.6,52.2L-237.6,52.2z"></path>
<polygon class="st1" points="-651.3,38.3 -702.7,118.2 -721.3,118.2 -680,54 -727.9,54 -717.9,38.3 "></polygon>
<polygon class="st1" points="-671.3,118.2 -623.4,118.2 -633.5,133.8 -700,133.8 -648.6,54 -630,54 "></polygon>
<g>
	<g>
		<path class="st0" d="M105.3,55.5v-8.2h5.4v1.2h-3.9v2.3h3.5V52h-3.5v2.4h3.9v1.2H105.3z"></path>
		<path class="st0" d="M112.1,55.5v-5.8h1.3l0.1,1c0.2-0.3,0.4-0.6,0.8-0.8c0.3-0.2,0.7-0.3,1.2-0.3c0.7,0,1.3,0.2,1.7,0.7    c0.4,0.5,0.6,1.1,0.6,2v3.3h-1.5v-3.2c0-0.5-0.1-0.9-0.3-1.2c-0.2-0.3-0.5-0.4-1-0.4c-0.4,0-0.8,0.1-1,0.4    c-0.3,0.3-0.4,0.7-0.4,1.2v3H112.1z"></path>
		<path class="st0" d="M121.2,55.7c-0.5,0-0.9-0.1-1.2-0.2c-0.3-0.2-0.6-0.4-0.7-0.6c-0.2-0.3-0.2-0.6-0.2-0.9c0-0.5,0.2-1,0.6-1.3    c0.4-0.3,1.1-0.5,1.9-0.5h1.5V52c0-0.4-0.1-0.7-0.3-0.9c-0.2-0.2-0.5-0.3-0.8-0.3c-0.3,0-0.6,0.1-0.8,0.2    c-0.2,0.1-0.4,0.4-0.4,0.6h-1.5c0-0.4,0.2-0.8,0.4-1.1c0.2-0.3,0.6-0.6,1-0.7c0.4-0.2,0.8-0.3,1.3-0.3c0.8,0,1.5,0.2,2,0.6    c0.5,0.4,0.7,1,0.7,1.8v3.6h-1.3l-0.1-0.9c-0.2,0.3-0.4,0.6-0.7,0.8C122.1,55.6,121.7,55.7,121.2,55.7z M121.6,54.5    c0.4,0,0.8-0.1,1-0.4c0.2-0.3,0.4-0.6,0.5-1h-1.3c-0.4,0-0.7,0.1-0.9,0.2c-0.2,0.1-0.3,0.3-0.3,0.5c0,0.2,0.1,0.4,0.3,0.5    C121.1,54.4,121.3,54.5,121.6,54.5z"></path>
		<path class="st0" d="M129.5,55.7c-0.4,0-0.8-0.1-1.2-0.2c-0.3-0.2-0.6-0.4-0.8-0.7l-0.2,0.8H126v-8.5h1.5v3.5    c0.2-0.3,0.4-0.5,0.7-0.7c0.3-0.2,0.7-0.3,1.2-0.3c0.5,0,1,0.1,1.5,0.4c0.4,0.3,0.8,0.6,1,1.1c0.3,0.5,0.4,1,0.4,1.6    c0,0.6-0.1,1.1-0.4,1.6c-0.3,0.5-0.6,0.8-1,1.1C130.5,55.6,130,55.7,129.5,55.7z M129.1,54.4c0.5,0,0.9-0.2,1.2-0.5    c0.3-0.3,0.5-0.7,0.5-1.2c0-0.5-0.2-0.9-0.5-1.3c-0.3-0.3-0.7-0.5-1.2-0.5c-0.5,0-0.9,0.2-1.2,0.5c-0.3,0.3-0.5,0.7-0.5,1.3    c0,0.5,0.2,0.9,0.5,1.3C128.3,54.2,128.7,54.4,129.1,54.4z"></path>
		<path class="st0" d="M133.7,55.5v-8.5h1.5v8.5H133.7z"></path>
		<path class="st0" d="M137.5,48.8c-0.3,0-0.5-0.1-0.7-0.2c-0.2-0.2-0.3-0.4-0.3-0.6s0.1-0.5,0.3-0.6c0.2-0.2,0.4-0.2,0.7-0.2    c0.3,0,0.5,0.1,0.7,0.2c0.2,0.2,0.3,0.4,0.3,0.6s-0.1,0.5-0.3,0.6C138,48.7,137.8,48.8,137.5,48.8z M136.8,55.5v-5.8h1.5v5.8    H136.8z"></path>
		<path class="st0" d="M139.9,55.5v-5.8h1.3l0.1,1c0.2-0.3,0.4-0.6,0.8-0.8c0.3-0.2,0.7-0.3,1.2-0.3c0.7,0,1.3,0.2,1.7,0.7    c0.4,0.5,0.6,1.1,0.6,2v3.3h-1.5v-3.2c0-0.5-0.1-0.9-0.3-1.2c-0.2-0.3-0.5-0.4-1-0.4c-0.4,0-0.8,0.1-1,0.4    c-0.3,0.3-0.4,0.7-0.4,1.2v3H139.9z"></path>
		<path class="st0" d="M149.5,53.8c-0.3,0-0.5,0-0.8-0.1l-0.4,0.4c0.1,0.1,0.3,0.1,0.5,0.2c0.2,0,0.6,0.1,1.1,0.1    c0.8,0.1,1.3,0.3,1.7,0.6c0.4,0.3,0.5,0.7,0.5,1.2c0,0.3-0.1,0.7-0.3,1c-0.2,0.3-0.5,0.6-0.9,0.8c-0.4,0.2-0.9,0.3-1.5,0.3    c-0.8,0-1.5-0.2-2-0.5c-0.5-0.3-0.8-0.8-0.8-1.4c0-0.5,0.3-1,0.8-1.4c-0.2-0.1-0.3-0.1-0.4-0.2c-0.1-0.1-0.2-0.2-0.3-0.2v-0.3    l1-1.1c-0.5-0.4-0.7-0.9-0.7-1.5c0-0.4,0.1-0.7,0.3-1.1c0.2-0.3,0.5-0.6,0.8-0.8c0.4-0.2,0.8-0.3,1.3-0.3c0.3,0,0.6,0,0.9,0.1h2.2    v0.9l-1,0.1c0.2,0.3,0.2,0.6,0.2,1c0,0.4-0.1,0.7-0.3,1.1c-0.2,0.3-0.5,0.6-0.8,0.8C150.4,53.7,150,53.8,149.5,53.8z M148.1,56.3    c0,0.3,0.1,0.5,0.4,0.7c0.3,0.1,0.6,0.2,1,0.2c0.4,0,0.7-0.1,0.9-0.2c0.2-0.2,0.4-0.4,0.4-0.6c0-0.2-0.1-0.4-0.2-0.5    c-0.2-0.1-0.5-0.2-0.9-0.3c-0.3,0-0.6-0.1-0.9-0.1c-0.2,0.1-0.4,0.3-0.5,0.4C148.1,56,148.1,56.1,148.1,56.3z M149.5,52.6    c0.3,0,0.6-0.1,0.8-0.2c0.2-0.2,0.3-0.4,0.3-0.7s-0.1-0.5-0.3-0.7c-0.2-0.2-0.5-0.2-0.8-0.2c-0.3,0-0.6,0.1-0.8,0.2    c-0.2,0.2-0.3,0.4-0.3,0.7s0.1,0.5,0.3,0.7C148.9,52.6,149.2,52.6,149.5,52.6z"></path>
		<path class="st0" d="M156.5,55.5v-8.2h1.5v8.2H156.5z"></path>
		<path class="st0" d="M162.4,55.7c-0.6,0-1.1-0.1-1.5-0.4c-0.5-0.3-0.8-0.6-1.1-1.1c-0.3-0.5-0.4-1-0.4-1.6c0-0.6,0.1-1.1,0.4-1.6    c0.3-0.5,0.6-0.8,1.1-1.1c0.5-0.3,1-0.4,1.5-0.4c0.6,0,1.1,0.1,1.5,0.4c0.5,0.3,0.8,0.6,1.1,1.1c0.3,0.5,0.4,1,0.4,1.6    c0,0.6-0.1,1.1-0.4,1.6c-0.3,0.5-0.6,0.8-1.1,1.1C163.5,55.6,163,55.7,162.4,55.7z M162.4,54.4c0.4,0,0.7-0.1,1-0.4    c0.3-0.3,0.4-0.7,0.4-1.3s-0.1-1-0.4-1.3c-0.3-0.3-0.6-0.4-1-0.4c-0.4,0-0.7,0.1-1,0.4c-0.3,0.3-0.4,0.7-0.4,1.3s0.1,1,0.4,1.3    C161.7,54.2,162,54.4,162.4,54.4z"></path>
		<path class="st0" d="M168.7,55.5v-7h-2.4v-1.2h6.3v1.2h-2.4v7H168.7z"></path>
	</g>
	<path class="st0" d="M51.5,30.3v-3.2L62,10.8H51.6V7.3h15.3v3.2L56.3,26.8H67v3.5H51.5z"></path>
	<path class="st0" d="M78.6,30.7c-1.6,0-3.1-0.4-4.4-1.1c-1.3-0.7-2.3-1.7-3-3c-0.7-1.3-1.1-2.7-1.1-4.4c0-1.7,0.4-3.2,1.1-4.5   c0.7-1.3,1.7-2.3,3-3.1c1.3-0.7,2.7-1.1,4.4-1.1c1.6,0,3,0.4,4.2,1.1c1.2,0.7,2.2,1.7,2.9,2.9c0.7,1.2,1,2.6,1,4.1   c0,0.2,0,0.5,0,0.8c0,0.3,0,0.5,0,0.8H74.3c0.1,1.3,0.5,2.3,1.3,3c0.8,0.7,1.8,1.1,2.9,1.1c0.9,0,1.6-0.2,2.2-0.6   c0.6-0.4,1-0.9,1.3-1.5h4.3c-0.3,1-0.8,2-1.5,2.8c-0.7,0.8-1.6,1.5-2.6,2C81,30.5,79.9,30.7,78.6,30.7z M78.6,17   c-1,0-1.9,0.3-2.7,0.9c-0.8,0.6-1.3,1.5-1.5,2.6h8.1c-0.1-1.1-0.5-1.9-1.2-2.6C80.6,17.4,79.7,17,78.6,17z"></path>
	<path class="st0" d="M90.3,30.3V14h4.2v3c0.6-1.1,1.3-1.8,2.3-2.4c1-0.6,2.2-0.9,3.6-0.9v4.4h-1.2c-0.9,0-1.7,0.1-2.5,0.4   c-0.7,0.3-1.3,0.8-1.7,1.5c-0.4,0.7-0.6,1.7-0.6,2.9v7.4H90.3z"></path>
	<path class="st0" d="M105.3,37.5l3.3-7.2L101.8,14h4.6l4.6,11.5l4.8-11.5h4.5l-10.3,23.5H105.3z"></path>
	<path class="st0" d="M122.9,30.3V14h4.2v2.5c0.5-0.9,1.1-1.4,2-2c1-0.6,2.1-0.9,3.4-0.9c2,0,3.6,0.6,4.7,1.9   c1.1,1.3,1.7,3.1,1.7,5.6v9.2h-4.2v-8.8c0-1.4-0.3-2.5-0.9-3.2c-0.6-0.7-1.5-1.1-2.7-1.1c-1.2,0-2.2,0.4-2.9,1.2   c-0.8,0.8-1.1,2-1.1,3.5v8.4H122.9z"></path>
	<path class="st0" d="M150.1,30.3c-1.7,0-3.1-0.4-4.1-1.2c-1-0.8-1.5-2.3-1.5-4.4v-7.1h-2.8V14h2.8V9.7h4.2V14h4.4v3.5h-4.4v7.1   c0,0.8,0.2,1.3,0.5,1.6c0.3,0.3,0.9,0.4,1.8,0.4h2v3.6H150.1z"></path>
	<path class="st0" d="M156.6,30.3V6.7h4.2v9.8c0.5-0.9,1.3-1.6,2.2-2.1c0.9-0.5,2-0.8,3.2-0.8c2,0,3.6,0.6,4.7,1.9   c1.1,1.3,1.7,3.1,1.7,5.6v9.2h-4.2v-8.8c0-1.4-0.3-2.5-0.8-3.2c-0.6-0.7-1.4-1.1-2.6-1.1c-1.2,0-2.2,0.4-2.9,1.2   c-0.8,0.8-1.2,2-1.2,3.5v8.4H156.6z"></path>
	<g>
		<path class="st0" d="M174.7,11.9V8.4h1.3c0.3,0,0.5,0,0.7,0.1c0.2,0.1,0.3,0.2,0.4,0.4c0.1,0.2,0.1,0.3,0.1,0.5    c0,0.2-0.1,0.4-0.2,0.6c-0.1,0.2-0.3,0.3-0.5,0.4l0.7,1.5h-0.7l-0.7-1.4h-0.5v1.4H174.7z M175.4,10h0.6c0.2,0,0.4-0.1,0.5-0.2    c0.1-0.1,0.2-0.2,0.2-0.4c0-0.2-0.1-0.3-0.2-0.4c-0.1-0.1-0.3-0.2-0.5-0.2h-0.6V10z"></path>
	</g>
	<path class="st0" d="M176,7.3c1.6,0,2.8,1.3,2.8,2.8S177.6,13,176,13c-1.6,0-2.8-1.3-2.8-2.8S174.5,7.3,176,7.3 M176,6.7   c-1.9,0-3.5,1.6-3.5,3.5c0,1.9,1.6,3.5,3.5,3.5c1.9,0,3.5-1.6,3.5-3.5C179.5,8.2,177.9,6.7,176,6.7L176,6.7z"></path>
	<polygon class="st1" points="27.9,1.7 9.5,30.3 2.9,30.3 17.7,7.3 0.5,7.3 4.1,1.7  "></polygon>
	<polygon class="st1" points="20.8,30.3 37.9,30.3 34.3,35.9 10.5,35.9 28.9,7.3 35.5,7.3  "></polygon>
</g>
</svg>
