<?xml version="1.0" encoding="utf-8"?>
<!-- Generator: Adobe Illustrator 24.2.1, SVG Export Plug-In . SVG Version: 6.00 Build 0)  -->
<svg version="1.1" id="Layer_1" xmlns="http://www.w3.org/2000/svg" xmlns:xlink="http://www.w3.org/1999/xlink" x="0px" y="0px"
	 viewBox="0 0 1733.5 694" style="enable-background:new 0 0 1733.5 694;" xml:space="preserve">
<style type="text/css">
	.st0{fill:none;}
	.st1{fill:#67C4B2;}
	.st2{fill:#0170EF;}
	.st3{fill:none;stroke:#E6F0FB;stroke-width:3.11;}
	.st4{fill:#71B0F6;}
	.st5{fill:#E6F0FB;}
	.st6{font-family:'DMSans-Bold';}
	.st7{font-size:4.5095px;}
	.st8{font-size:7.5159px;}
	.st9{fill:#02074A;}
	.st10{fill:none;stroke:#E6F0FB;stroke-width:4;stroke-dasharray:0,0,8,12;}
	.st11{fill:none;stroke:#E6F0FB;stroke-width:3.89;}
	.st12{fill:#0170EF;stroke:#E6F0FB;}
	.st13{clip-path:url(#SVGID_2_);}
	.st14{fill:url(#SVGID_3_);}
	.st15{fill:url(#SVGID_4_);}
	.st16{fill:url(#SVGID_5_);}
	.st17{fill:url(#SVGID_6_);}
	.st18{fill:url(#SVGID_7_);}
	.st19{fill:url(#SVGID_8_);}
	.st20{fill:#71B0F6;stroke:#E6F0FB;stroke-width:3.11;}
	.st21{fill:url(#SVGID_9_);stroke:#E6F0FB;stroke-width:3.11;}
	.st22{fill:url(#SVGID_10_);stroke:#E6F0FB;stroke-width:3.11;}
	.st23{fill:url(#SVGID_11_);stroke:#E6F0FB;}
	.st24{fill:#71B0F6;stroke:#E6F0FB;}
	.st25{fill:none;stroke:#E6F0FB;}
	.st26{fill:url(#SVGID_12_);stroke:#E6F0FB;}
	.st27{fill:url(#SVGID_13_);stroke:#E6F0FB;}
	.st28{fill:none;stroke:#E6F0FB;stroke-width:3.89;stroke-dasharray:0,0,9.61,9.61;}
	.st29{fill:none;stroke:#02074A;}
	.st30{fill:none;stroke:#0170EF;stroke-width:4.15;}
	.st31{fill:#0170EF;stroke:#E6F0FB;stroke-width:3.81;}
	.st32{fill:#F2F2F2;}
	.st33{fill:none;stroke:#E6F0FB;stroke-width:15;}
	.st34{fill:none;stroke:#02074A;stroke-width:15;}
	.st35{fill:none;stroke:#0170EF;stroke-width:15;}
	.st36{font-size:6.3133px;}
	.st37{fill:none;stroke:#0170EF;stroke-width:2.8;stroke-linecap:round;}
	.st38{fill:none;stroke:#02074A;stroke-width:2.8;stroke-linecap:round;}
	.st39{fill:none;stroke:#E6F0FB;stroke-width:2.8;stroke-linecap:round;}
	.st40{fill:#E6F0FB;stroke:#E6F0FB;stroke-width:3.11;}
	.st41{stroke:#E6F0FB;}
	.st42{fill:#02074A;stroke:#E6F0FB;}
	.st43{fill:#FFFFFF;}
	.st44{fill:url(#SVGID_14_);}
	.st45{fill:url(#SVGID_15_);}
	.st46{fill:url(#SVGID_16_);}
	.st47{fill:url(#SVGID_17_);}
	.st48{fill:url(#SVGID_18_);}
</style>
<pattern  x="326.7" y="887" width="32.6" height="32.6" patternUnits="userSpaceOnUse" id="k" viewBox="0 -32.6 32.6 32.6" style="overflow:visible;">
	<g>
		<rect y="-32.6" class="st0" width="32.6" height="32.6"/>
		<g>
			<rect y="-32.6" width="32.6" height="32.6"/>
			<rect y="-32.6" class="st1" width="32.6" height="32.6"/>
		</g>
	</g>
</pattern>
<g id="a">
	<rect class="st2" width="1733.5" height="694"/>
	<line class="st3" x1="1118.5" y1="393.2" x2="1118.5" y2="462"/>
</g>
<g id="b">
	<circle class="st4" cx="949" cy="496.9" r="6.4"/>
	<circle class="st4" cx="1008.6" cy="594" r="6.4"/>
</g>
<circle class="st4" cx="609" cy="156.3" r="74.1"/>
<g>
	<path class="st2" d="M567.6,113h82.6c1.8,0,3.3,1.5,3.3,3.3v16.6c0,1.8-1.5,3.3-3.3,3.3h-82.6c-1.8,0-3.3-1.5-3.3-3.3v-16.6
		C564.3,114.5,565.8,113,567.6,113z"/>
	<path class="st5" d="M568.4,140.3h34.2c1.8,0,3.3,1.5,3.3,3.3v16.6c0,1.8-1.5,3.3-3.3,3.3h-34.2c-1.8,0-3.3-1.5-3.3-3.3v-16.6
		C565.1,141.7,566.5,140.3,568.4,140.3z"/>
	<path class="st5" d="M615.3,140.3h34.2c1.8,0,3.3,1.5,3.3,3.3v16.6c0,1.8-1.5,3.3-3.3,3.3h-34.2c-1.8,0-3.3-1.5-3.3-3.3v-16.6
		C612,141.7,613.5,140.3,615.3,140.3z"/>
	<text transform="matrix(1 0 0 1 566.8694 148.3457)" class="st2 st6 st7">A</text>
	<text transform="matrix(1 0 0 1 569.6282 148.3457)" class="st2 st6 st7">V</text>
	<text transform="matrix(1 0 0 1 572.6794 148.3457)" class="st2 st6 st7">G. </text>
	<text transform="matrix(1 0 0 1 578.3162 148.3457)" class="st2 st6 st7">C</text>
	<text transform="matrix(1 0 0 1 581.4807 148.3457)" class="st2 st6 st7">Y</text>
	<text transform="matrix(1 0 0 1 584.0959 148.3457)" class="st2 st6 st7">CLE TIME</text>
	<text transform="matrix(1 0 0 1 568.5457 157.4102)" class="st2 st6 st8">00:00:47</text>
	<text transform="matrix(1 0 0 1 613.5959 148.3457)" class="st2 st6 st7">TO</text>
	<text transform="matrix(1 0 0 1 619.6013 148.3457)" class="st2 st6 st7">T</text>
	<text transform="matrix(1 0 0 1 621.9084 148.3457)" class="st2 st6 st7">. ALARM TIME</text>
	<text transform="matrix(1 0 0 1 615.843 157.4102)" class="st2 st6 st8">00:23:05</text>
	<text transform="matrix(1 0 0 1 589.6277 106.5425)" class="st5 st6 st8">M</text>
	<text transform="matrix(1 0 0 1 596.2644 106.5425)" class="st5 st6 st8">A</text>
	<text transform="matrix(1 0 0 1 601.2322 106.5425)" class="st5 st6 st8">CHINE 1</text>
	<text transform="matrix(1 0 0 1 591.5066 121.1235)" class="st5 st6 st7">A</text>
	<text transform="matrix(1 0 0 1 594.49 121.1235)" class="st5 st6 st7">C</text>
	<text transform="matrix(1 0 0 1 597.7673 121.1235)" class="st5 st6 st7">T</text>
	<text transform="matrix(1 0 0 1 600.4353 121.1235)" class="st5 st6 st7">U</text>
	<text transform="matrix(1 0 0 1 603.3743 121.1235)" class="st5 st6 st7">AL </text>
	<text transform="matrix(1 0 0 1 610.0935 121.1235)" class="st5 st6 st7">S</text>
	<text transform="matrix(1 0 0 1 612.739 121.1235)" class="st5 st6 st7">TA</text>
	<text transform="matrix(1 0 0 1 617.9021 121.1235)" class="st5 st6 st7">TUS</text>
	<text transform="matrix(1 0 0 1 590.9128 130.1875)" class="st5 st6 st8">W</text>
	<text transform="matrix(1 0 0 1 598.2786 130.1875)" class="st5 st6 st8">ORKING</text>
	<path class="st5" d="M568.4,188.2h34.2c1.8,0,3.3,1.5,3.3,3.3v16.6c0,1.8-1.5,3.3-3.3,3.3h-34.2c-1.8,0-3.3-1.5-3.3-3.3v-16.6
		C565.1,189.7,566.5,188.2,568.4,188.2z"/>
	<path class="st9" d="M615.3,188.2h34.2c1.8,0,3.3,1.5,3.3,3.3v16.6c0,1.8-1.5,3.3-3.3,3.3h-34.2c-1.8,0-3.3-1.5-3.3-3.3v-16.6
		C612,189.7,613.5,188.2,615.3,188.2z"/>
	<text transform="matrix(1 0 0 1 578.0833 196.3198)" class="st2 st6 st7">T</text>
	<text transform="matrix(1 0 0 1 580.6384 196.3198)" class="st2 st6 st7">O</text>
	<text transform="matrix(1 0 0 1 584.2009 196.3198)" class="st2 st6 st7">D</text>
	<text transform="matrix(1 0 0 1 587.2073 196.3198)" class="st2 st6 st7">A</text>
	<text transform="matrix(1 0 0 1 590.0037 196.3198)" class="st2 st6 st7">Y</text>
	<text transform="matrix(1 0 0 1 574.3552 205.3838)" class="st2 st6 st8">9</text>
	<text transform="matrix(1 0 0 1 579.053 205.3838)" class="st2 st6 st8">3,8%</text>
	<text transform="matrix(1 0 0 1 625.1179 196.3198)" class="st5 st6 st7">TREND</text>
	<text transform="matrix(1 0 0 1 624.7043 205.3838)" class="st5 st6 st8">3,1%</text>
	<path class="st2" d="M567.6,167.5h82.6c1.8,0,3.3,1.5,3.3,3.3v10.1c0,1.8-1.5,3.3-3.3,3.3h-82.6c-1.8,0-3.3-1.5-3.3-3.3v-10.1
		C564.3,168.9,565.8,167.5,567.6,167.5z"/>
	<text transform="matrix(1 0 0 1 601.6008 177.9512)" class="st5 st6 st8">OEE</text>
</g>
<path class="st10" d="M942.6,196.9v-20.5c0-11.5-9.3-20.9-20.9-20.9H692.6"/>
<circle class="st11" cx="609" cy="156.3" r="74.1"/>
<path class="st10" d="M650,426.1h10.2c9.8,0,17.8-8,17.8-17.8V291.7c0-9.8,8-17.8,17.8-17.8H908"/>
<path class="st10" d="M942.6,243.5v-22.9c0-12.2,9.9-22,22-22h62.8"/>
<polygon class="st12" points="975.6,44.1 797.5,44.1 797.5,102.9 878.7,264.9 894.4,264.9 975.6,102.9 "/>
<circle class="st4" cx="1110.8" cy="198.4" r="74.1"/>
<path class="st10" d="M981.8,296.1h154.6c10.6,0,19.2,8.6,19.2,19.2v53.4"/>
<circle class="st4" cx="1155.6" cy="460.2" r="77.9"/>
<circle class="st4" cx="573.7" cy="415" r="68.6"/>
<g>
	<defs>
		<circle id="SVGID_1_" cx="1155.6" cy="460.2" r="77.9"/>
	</defs>
	<clipPath id="SVGID_2_">
		<use xlink:href="#SVGID_1_"  style="overflow:visible;"/>
	</clipPath>
	<g class="st13">
		<g>
			
				<linearGradient id="SVGID_3_" gradientUnits="userSpaceOnUse" x1="1108.0995" y1="217.1878" x2="1108.0995" y2="154.385" gradientTransform="matrix(1 0 0 -1 0 694)">
				<stop  offset="0" style="stop-color:#02074A"/>
				<stop  offset="0.13" style="stop-color:#011C6C"/>
				<stop  offset="0.34" style="stop-color:#013A9A"/>
				<stop  offset="0.53" style="stop-color:#0151BF"/>
				<stop  offset="0.71" style="stop-color:#0162D9"/>
				<stop  offset="0.87" style="stop-color:#016CE9"/>
				<stop  offset="1" style="stop-color:#0170EF"/>
			</linearGradient>
			<rect x="1099.3" y="476.3" class="st14" width="17.6" height="61"/>
			
				<linearGradient id="SVGID_4_" gradientUnits="userSpaceOnUse" x1="1201.9729" y1="205.1098" x2="1201.9729" y2="154.8285" gradientTransform="matrix(1 0 0 -1 0 694)">
				<stop  offset="0" style="stop-color:#02074A"/>
				<stop  offset="0.13" style="stop-color:#011C6C"/>
				<stop  offset="0.34" style="stop-color:#013A9A"/>
				<stop  offset="0.53" style="stop-color:#0151BF"/>
				<stop  offset="0.71" style="stop-color:#0162D9"/>
				<stop  offset="0.87" style="stop-color:#016CE9"/>
				<stop  offset="1" style="stop-color:#0170EF"/>
			</linearGradient>
			<rect x="1193.2" y="488.5" class="st15" width="17.6" height="48.9"/>
			
				<linearGradient id="SVGID_5_" gradientUnits="userSpaceOnUse" x1="1131.2334" y1="233.1741" x2="1131.2334" y2="153.7913" gradientTransform="matrix(1 0 0 -1 0 694)">
				<stop  offset="0" style="stop-color:#02074A"/>
				<stop  offset="0.13" style="stop-color:#011C6C"/>
				<stop  offset="0.34" style="stop-color:#013A9A"/>
				<stop  offset="0.53" style="stop-color:#0151BF"/>
				<stop  offset="0.71" style="stop-color:#0162D9"/>
				<stop  offset="0.87" style="stop-color:#016CE9"/>
				<stop  offset="1" style="stop-color:#0170EF"/>
			</linearGradient>
			<rect x="1122.4" y="460.2" class="st16" width="17.6" height="77.2"/>
			
				<linearGradient id="SVGID_6_" gradientUnits="userSpaceOnUse" x1="1154.3597" y1="191.6488" x2="1154.3597" y2="155.332" gradientTransform="matrix(1 0 0 -1 0 694)">
				<stop  offset="0" style="stop-color:#02074A"/>
				<stop  offset="0.13" style="stop-color:#011C6C"/>
				<stop  offset="0.34" style="stop-color:#013A9A"/>
				<stop  offset="0.53" style="stop-color:#0151BF"/>
				<stop  offset="0.71" style="stop-color:#0162D9"/>
				<stop  offset="0.87" style="stop-color:#016CE9"/>
				<stop  offset="1" style="stop-color:#0170EF"/>
			</linearGradient>
			<rect x="1145.6" y="502.1" class="st17" width="17.6" height="35.3"/>
			
				<linearGradient id="SVGID_7_" gradientUnits="userSpaceOnUse" x1="1177.4937" y1="211.9943" x2="1177.4937" y2="154.5729" gradientTransform="matrix(1 0 0 -1 0 694)">
				<stop  offset="0" style="stop-color:#02074A"/>
				<stop  offset="0.13" style="stop-color:#011C6C"/>
				<stop  offset="0.34" style="stop-color:#013A9A"/>
				<stop  offset="0.53" style="stop-color:#0151BF"/>
				<stop  offset="0.71" style="stop-color:#0162D9"/>
				<stop  offset="0.87" style="stop-color:#016CE9"/>
				<stop  offset="1" style="stop-color:#0170EF"/>
			</linearGradient>
			<rect x="1168.7" y="481.6" class="st18" width="17.6" height="55.8"/>
		</g>
	</g>
</g>
<linearGradient id="SVGID_8_" gradientUnits="userSpaceOnUse" x1="578.6886" y1="277.6906" x2="578.6886" y2="208.5671" gradientTransform="matrix(1 0 0 -1 0 694)">
	<stop  offset="0" style="stop-color:#02074A"/>
	<stop  offset="0.13" style="stop-color:#011C6C"/>
	<stop  offset="0.34" style="stop-color:#013A9A"/>
	<stop  offset="0.53" style="stop-color:#0151BF"/>
	<stop  offset="0.71" style="stop-color:#0162D9"/>
	<stop  offset="0.87" style="stop-color:#016CE9"/>
	<stop  offset="1" style="stop-color:#0170EF"/>
</linearGradient>
<path class="st19" d="M639.1,413.9l-17.3,22.6l-18-20.5l-37.9,24.7l-18.3-14.9L515.4,453c0,0,15.2,29,61.8,29
	S651.1,436.1,639.1,413.9L639.1,413.9z"/>
<line class="st0" x1="747.5" y1="414" x2="975.6" y2="414"/>
<path class="st4" d="M950.5,518.4c-10.5,0-19,8.5-19,19s8.5,19,19,19s19-8.5,19-19S960.9,518.4,950.5,518.4z M949,549.8
	c-7.7,0-13.9-6.2-13.9-13.9S941.3,522,949,522s13.9,6.2,13.9,13.9S956.6,549.8,949,549.8z"/>
<path class="st4" d="M983.3,551.3c-10.5,0-19,8.5-19,19c0,10.5,8.5,19,19,19c10.5,0,19-8.5,19-19S993.8,551.3,983.3,551.3z
	 M981.8,582.7c-7.7,0-13.9-6.2-13.9-13.9s6.2-13.9,13.9-13.9c7.7,0,13.9,6.2,13.9,13.9S989.5,582.7,981.8,582.7z"/>
<path class="st4" d="M818.6,535.9c0,18-14.6,32.6-32.6,32.6s-32.6-14.6-32.6-32.6s14.6-32.6,32.6-32.6S818.6,517.9,818.6,535.9V532
	h10.3c-2-22-20.4-39.2-42.9-39.2c-23.8,0-43.1,19.3-43.1,43.1c0,23.8,19.3,43.1,43.1,43.1c22.5,0,40.9-17.2,42.9-39.2h-10.3V535.9
	L818.6,535.9z"/>
<polygon class="st20" points="761.3,319.3 759.4,332.5 723.4,332.5 725.3,319.3 "/>
<polygon class="st20" points="752.3,381.4 736,492.8 700,492.8 716.3,381.4 "/>
<pattern  id="SVGID_9_" xlink:href="#k" patternTransform="matrix(1 0 0 -1 -1620.6699 -18923.9902)">
</pattern>
<polygon class="st21" points="700,492.8 736,492.8 714,644 678,644 "/>
<pattern  id="SVGID_10_" xlink:href="#k" patternTransform="matrix(1 0 0 -1 -1620.6699 -18923.9902)">
</pattern>
<polygon class="st22" points="759.4,332.5 752.3,381.4 716.3,381.4 723.4,332.5 "/>
<pattern  id="SVGID_11_" xlink:href="#k" patternTransform="matrix(1 0 0 -1 -1620.6699 -18923.9902)">
</pattern>
<polygon class="st23" points="797.5,44.1 759.1,44.1 759.1,102.9 840.3,264.9 878.7,264.9 797.5,102.9 "/>
<rect x="840.3" y="265.2" class="st24" width="38.3" height="54.1"/>
<path class="st3" d="M1056.8,644H714L736,492.8l16.2-111.5l7.1-48.9l1.9-13.2H972c6.9,0,13.5,1.6,19.4,4.6c11,5.5,19.4,15.6,22.5,28
	c0.4,1.4,0.7,2.9,0.9,4.4L1056.8,644z"/>
<circle class="st4" cx="786" cy="453.9" r="13.9"/>
<circle class="st3" cx="786" cy="535.9" r="32.6"/>
<circle class="st3" cx="786" cy="535.9" r="20.1"/>
<circle class="st3" cx="867.5" cy="453.9" r="13.9"/>
<circle class="st4" cx="949" cy="453.9" r="13.9"/>
<path class="st3" d="M962.9,535.9c0,7.7-6.2,13.9-13.9,13.9s-13.9-6.2-13.9-13.9S941.3,522,949,522S962.9,528.2,962.9,535.9z"/>
<path class="st3" d="M995.7,568.8c0,7.7-6.2,13.9-13.9,13.9s-13.9-6.2-13.9-13.9s6.2-13.9,13.9-13.9S995.7,561.1,995.7,568.8z"/>
<polygon class="st3" points="1001.8,481.7 737.6,481.7 745.7,426.1 1001.8,426.1 "/>
<path class="st3" d="M994.4,401.9H749.3l-3.5,24.1h256v-16.8C1001.8,405.2,998.5,401.9,994.4,401.9L994.4,401.9z"/>
<rect x="818.6" y="532" class="st3" width="75" height="7.9"/>
<circle class="st9" cx="904.2" cy="535.9" r="10.6"/>
<line class="st3" x1="949" y1="522" x2="949" y2="503.3"/>
<line class="st3" x1="1004.8" y1="591.1" x2="991.6" y2="577.8"/>
<polygon class="st25" points="975.6,44.1 975.6,102.9 894.4,264.9 840.3,264.9 759.1,102.9 759.1,44.1 "/>
<line class="st25" x1="759.1" y1="102.9" x2="975.6" y2="102.9"/>
<polygon class="st25" points="894.4,265.2 894.4,319.3 840.3,319.3 840.3,299 878.7,299 878.7,285.5 840.3,285.5 840.3,265.2 "/>
<rect x="878.7" y="265.2" class="st12" width="15.8" height="20.3"/>
<rect x="878.7" y="299" class="st25" width="15.8" height="20.3"/>
<pattern  id="SVGID_12_" xlink:href="#k" patternTransform="matrix(1 0 0 -1 -1620.6699 -18923.9902)">
</pattern>
<rect x="840.3" y="285.5" class="st26" width="38.3" height="13.5"/>
<rect x="826.8" y="285.5" class="st24" width="13.5" height="13.5"/>
<rect x="878.7" y="285.5" class="st24" width="15.8" height="13.5"/>
<pattern  id="SVGID_13_" xlink:href="#k" patternTransform="matrix(1 0 0 -1 -1620.6699 -18923.9902)">
</pattern>
<rect x="894.4" y="285.5" class="st27" width="13.5" height="13.5"/>
<g>
	<line class="st11" x1="759.1" y1="75.8" x2="762.7" y2="75.8"/>
	<line class="st28" x1="769.9" y1="75.8" x2="968.5" y2="75.8"/>
	<line class="st11" x1="972.1" y1="75.8" x2="975.6" y2="75.8"/>
</g>
<rect x="772.7" y="264.9" class="st2" width="26.6" height="54.5"/>
<rect x="772.7" y="264.9" class="st25" width="26.6" height="54.5"/>
<line class="st25" x1="772.7" y1="292.3" x2="799.4" y2="292.3"/>
<circle class="st29" cx="786" cy="278.3" r="7.2"/>
<line class="st25" x1="786" y1="292.3" x2="786" y2="447.6"/>
<circle class="st0" cx="786" cy="453.3" r="5.7"/>
<line class="st25" x1="786" y1="292.1" x2="786" y2="319.3"/>
<line class="st3" x1="716.3" y1="381.4" x2="715.7" y2="381.4"/>
<line class="st3" x1="736.5" y1="492.8" x2="736" y2="492.8"/>
<circle class="st11" cx="1155.6" cy="460.2" r="77.9"/>
<polyline class="st30" points="515.4,453 547.5,425.8 565.8,440.7 603.7,416.1 621.7,436.5 642.3,410.7 "/>
<circle class="st31" cx="547.9" cy="427.3" r="4.5"/>
<circle class="st31" cx="565.8" cy="440.7" r="4.5"/>
<circle class="st31" cx="604" cy="418.4" r="4.5"/>
<circle class="st31" cx="621.1" cy="437.1" r="4.5"/>
<circle class="st11" cx="573.7" cy="415" r="68.6"/>
<text transform="matrix(1 0 0 1 1101.3845 473.1143)" class="st32 st6 st7">06:45</text>
<text transform="matrix(1 0 0 1 1124.0447 455.8281)" class="st32 st6 st7">0</text>
<text transform="matrix(1 0 0 1 1127.2156 455.8281)" class="st32 st6 st7">7:00</text>
<text transform="matrix(1 0 0 1 1149.3347 497.4961)" class="st32 st6 st7">0</text>
<text transform="matrix(1 0 0 1 1152.5066 497.4961)" class="st32 st6 st7">7:15</text>
<text transform="matrix(1 0 0 1 1171.906 476.9258)" class="st32 st6 st7">0</text>
<text transform="matrix(1 0 0 1 1175.0769 476.9258)" class="st32 st6 st7">7:30</text>
<text transform="matrix(1 0 0 1 1195.9792 483.9229)" class="st32 st6 st7">0</text>
<text transform="matrix(1 0 0 1 1199.1511 483.9229)" class="st32 st6 st7">7:45</text>
<g>
	<path class="st5" d="M1103.9,418.1h25.5c1.7,0,3,1.3,3,3v17.1c0,1.7-1.3,3-3,3h-25.5c-1.7,0-3-1.3-3-3v-17.1
		C1100.9,419.5,1102.2,418.1,1103.9,418.1z"/>
	<path class="st5" d="M1142.2,418.1h25.5c1.7,0,3,1.3,3,3v17.1c0,1.7-1.3,3-3,3h-25.5c-1.7,0-3-1.3-3-3v-17.1
		C1139.2,419.5,1140.6,418.1,1142.2,418.1z"/>
	<path class="st2" d="M1180.6,418.1h25.5c1.7,0,3,1.3,3,3v17.1c0,1.7-1.3,3-3,3h-25.5c-1.7,0-3-1.3-3-3v-17.1
		C1177.6,419.5,1178.9,418.1,1180.6,418.1z"/>
</g>
<g>
	<text transform="matrix(1 0 0 1 1109.2615 426.208)" class="st2 st6 st7">T</text>
	<text transform="matrix(1 0 0 1 1111.8162 426.208)" class="st2 st6 st7">O</text>
	<text transform="matrix(1 0 0 1 1115.3787 426.208)" class="st2 st6 st7">D</text>
	<text transform="matrix(1 0 0 1 1118.3845 426.208)" class="st2 st6 st7">A</text>
	<text transform="matrix(1 0 0 1 1121.1804 426.208)" class="st2 st6 st7">Y</text>
	<text transform="matrix(1 0 0 1 1105.533 435.2715)" class="st2 st6 st8">9</text>
	<text transform="matrix(1 0 0 1 1110.2302 435.2715)" class="st2 st6 st8">3,8%</text>
</g>
<text transform="matrix(1 0 0 1 1144.781 426.208)" class="st2 st6 st7">A</text>
<text transform="matrix(1 0 0 1 1147.5388 426.208)" class="st2 st6 st7">VER</text>
<text transform="matrix(1 0 0 1 1156.1072 426.208)" class="st2 st6 st7">A</text>
<text transform="matrix(1 0 0 1 1159.0906 426.208)" class="st2 st6 st7">GE</text>
<text transform="matrix(1 0 0 1 1144.5183 435.2715)" class="st2 st6 st8">9</text>
<text transform="matrix(1 0 0 1 1149.2156 435.2715)" class="st2 st6 st8">1,0%</text>
<g>
	<text transform="matrix(1 0 0 1 1186.0652 426.208)" class="st5 st6 st7">TREND</text>
	<text transform="matrix(1 0 0 1 1185.6521 435.2715)" class="st5 st6 st8">3,1%</text>
</g>
<g>
	<path class="st5" d="M522.6,383.6h25.5c1.7,0,3,1.3,3,3v17.1c0,1.7-1.3,3-3,3h-25.5c-1.7,0-3-1.3-3-3v-17.1
		C519.6,384.9,520.9,383.6,522.6,383.6z"/>
	<path class="st5" d="M561,383.6h25.5c1.7,0,3,1.3,3,3v17.1c0,1.7-1.3,3-3,3H561c-1.7,0-3-1.3-3-3v-17.1
		C558,384.9,559.3,383.6,561,383.6z"/>
	<path class="st2" d="M599.3,383.6h25.5c1.7,0,3,1.3,3,3v17.1c0,1.7-1.3,3-3,3h-25.5c-1.7,0-3-1.3-3-3v-17.1
		C596.3,384.9,597.7,383.6,599.3,383.6z"/>
</g>
<g>
	<text transform="matrix(1 0 0 1 527.9822 391.6807)" class="st2 st6 st7">T</text>
	<text transform="matrix(1 0 0 1 530.5378 391.6807)" class="st2 st6 st7">O</text>
	<text transform="matrix(1 0 0 1 534.1003 391.6807)" class="st2 st6 st7">D</text>
	<text transform="matrix(1 0 0 1 537.1067 391.6807)" class="st2 st6 st7">A</text>
	<text transform="matrix(1 0 0 1 539.9026 391.6807)" class="st2 st6 st7">Y</text>
	<text transform="matrix(1 0 0 1 523.8264 400.7441)" class="st2 st6 st8">368</text>
	<text transform="matrix(1 0 0 1 537.7981 400.7441)" class="st2 st6 st7"> pcs</text>
</g>
<text transform="matrix(1 0 0 1 563.5022 391.6807)" class="st2 st6 st7">A</text>
<text transform="matrix(1 0 0 1 566.261 391.6807)" class="st2 st6 st7">VER</text>
<text transform="matrix(1 0 0 1 574.8289 391.6807)" class="st2 st6 st7">A</text>
<text transform="matrix(1 0 0 1 577.8127 391.6807)" class="st2 st6 st7">GE</text>
<text transform="matrix(1 0 0 1 561.9241 400.7441)" class="st2 st6 st8">350</text>
<text transform="matrix(1 0 0 1 576.3997 400.7441)" class="st2 st6 st7"> pcs</text>
<text transform="matrix(1 0 0 1 549.2522 377.2725)" class="st5 st6 st8">PRODU</text>
<text transform="matrix(1 0 0 1 574.9041 377.2725)" class="st5 st6 st8">C</text>
<text transform="matrix(1 0 0 1 580.3757 377.2725)" class="st5 st6 st8">TION</text>
<g>
	<text transform="matrix(1 0 0 1 604.7874 391.6807)" class="st5 st6 st7">TREND</text>
	<text transform="matrix(1 0 0 1 602.9158 400.7441)" class="st5 st6 st8">5,0%</text>
</g>
<circle class="st11" cx="1110.8" cy="198.4" r="74.1"/>
<g>
	<path class="st33" d="M1091,199.8c5-5.2,12.1-8.4,19.8-8.4"/>
	<path class="st34" d="M1083.1,219.2c0-7.5,3-14.4,7.9-19.4"/>
	<path class="st35" d="M1110.8,191.5c15.3,0,27.7,12.4,27.7,27.7s-12.4,27.7-27.7,27.7c-15.3,0-27.7-12.4-27.7-27.7"/>
</g>
<g>
	<g>
		<text transform="matrix(1 0 0 1 1105.0818 147.4438)" class="st2 st6 st36">W</text>
		<text transform="matrix(1 0 0 1 1111.2673 147.4438)" class="st2 st6 st36">ORKING</text>
		<line class="st37" x1="1096.8" y1="145.6" x2="1084.3" y2="145.6"/>
	</g>
	<g>
		<text transform="matrix(1 0 0 1 1105.0818 161.5664)" class="st9 st6 st36">S</text>
		<text transform="matrix(1 0 0 1 1108.7947 161.5664)" class="st9 st6 st36">T</text>
		<text transform="matrix(1 0 0 1 1112.0564 161.5664)" class="st9 st6 st36">AND </text>
		<text transform="matrix(1 0 0 1 1127.0281 161.5664)" class="st9 st6 st36">B</text>
		<text transform="matrix(1 0 0 1 1130.824 161.5664)" class="st9 st6 st36">Y</text>
		<line class="st38" x1="1096.8" y1="159.7" x2="1084.3" y2="159.7"/>
	</g>
	<g>
		<text transform="matrix(1 0 0 1 1105.0818 175.6812)" class="st5 st6 st36">ALARM</text>
		<line class="st39" x1="1096.8" y1="173.8" x2="1084.3" y2="173.8"/>
	</g>
</g>
<line class="st25" x1="917.8" y1="265.2" x2="968.9" y2="265.2"/>
<line class="st25" x1="917.8" y1="281.2" x2="968.9" y2="281.2"/>
<line class="st25" x1="917.8" y1="305.7" x2="949.7" y2="305.7"/>
<rect x="928.9" y="253.3" class="st40" width="28.4" height="66.1"/>
<rect x="917.8" y="253.3" class="st25" width="50.8" height="66.1"/>
<path class="st41" d="M943.3,271.4L943.3,271.4c2.8,0,5.1,2.3,5.1,5.1V296c0,2.8-2.3,5.1-5.1,5.1h0c-2.8,0-5.1-2.3-5.1-5.1v-19.5
	C938.1,273.7,940.4,271.4,943.3,271.4z"/>
<path class="st25" d="M917.8,312.1h-5.5c-6.1,0-11,4.9-11,11v119.7c0,6.1,4.9,11,11,11h36.2"/>
<rect x="943.3" y="448.3" class="st42" width="11.2" height="11.2"/>
<g>
	<path class="st2" d="M942.9,257L942.9,257c4.7,0,8.4,3.8,8.4,8.4v41.1c0,4.7-3.8,8.4-8.4,8.4h0c-4.7,0-8.4-3.8-8.4-8.4v-41.1
		C934.5,260.8,938.3,257,942.9,257z"/>
	<g>
		<g>
			<polygon class="st43" points="944.6,292.7 943.9,292.7 940.7,290.5 940.7,292.6 940,292.6 940,289.6 940.6,289.6 943.9,291.7 
				943.9,289.6 944.6,289.6 			"/>
			<path class="st43" d="M944.7,287.3c0,0.3-0.1,0.6-0.2,0.9c-0.1,0.3-0.3,0.5-0.6,0.6c-0.3,0.1-0.5,0.2-0.9,0.2
				c-0.3,0-0.6-0.1-0.9-0.2c-0.3-0.1-0.5-0.3-0.6-0.6c-0.1-0.2-0.2-0.5-0.2-0.9c0-0.3,0.1-0.6,0.2-0.8s0.3-0.4,0.6-0.6
				c0.2-0.1,0.5-0.2,0.8-0.2c0,0,0.1,0,0.2,0s0.1,0,0.2,0v2.5c0.3,0,0.5-0.1,0.6-0.3c0.1-0.2,0.2-0.4,0.2-0.6c0-0.2,0-0.3-0.1-0.4
				c-0.1-0.1-0.2-0.2-0.3-0.3v-0.8c0.2,0.1,0.4,0.2,0.6,0.3c0.2,0.1,0.3,0.3,0.4,0.5C944.6,286.8,944.7,287,944.7,287.3
				 M941.9,287.3c0,0.2,0.1,0.4,0.2,0.5s0.3,0.3,0.5,0.3v-1.6c-0.2,0-0.4,0.1-0.5,0.2C942,286.9,941.9,287.1,941.9,287.3"/>
			<path class="st43" d="M944.6,284.9h-3.2v-0.8h0.6c-0.2-0.1-0.4-0.3-0.5-0.5c-0.1-0.2-0.2-0.4-0.2-0.7h0.9v0.2
				c0,0.2,0,0.3,0.1,0.5c0.1,0.1,0.2,0.3,0.3,0.3c0.1,0.1,0.3,0.1,0.6,0.1h1.5L944.6,284.9L944.6,284.9z"/>
			<polygon class="st43" points="946,281.9 944.6,281.3 941.3,282.6 941.3,281.7 943.6,280.8 941.3,279.9 941.3,279 946,281 			"/>
			<path class="st43" d="M944.6,278.4h-3.2v-0.8h0.5c-0.2-0.1-0.3-0.2-0.4-0.4c-0.1-0.2-0.2-0.4-0.2-0.7c0-0.4,0.1-0.7,0.4-0.9
				c0.3-0.2,0.6-0.3,1.1-0.3h1.8v0.8h-1.8c-0.3,0-0.5,0.1-0.6,0.2c-0.2,0.1-0.2,0.3-0.2,0.5c0,0.2,0.1,0.4,0.2,0.6
				c0.2,0.2,0.4,0.2,0.7,0.2h1.7V278.4L944.6,278.4z"/>
			<path class="st43" d="M944.6,273c0,0.3-0.1,0.6-0.2,0.8s-0.5,0.3-0.9,0.3H942v0.6h-0.7v-0.6h-0.9v-0.8h0.9v-0.9h0.7v0.9h1.4
				c0.2,0,0.3,0,0.3-0.1c0.1-0.1,0.1-0.2,0.1-0.4v-0.4h0.7V273z"/>
			<path class="st43" d="M944.6,271.7h-4.7v-0.8h2c-0.2-0.1-0.3-0.3-0.4-0.4c-0.1-0.2-0.2-0.4-0.2-0.6c0-0.4,0.1-0.7,0.4-0.9
				s0.6-0.3,1.1-0.3h1.8v0.8h-1.8c-0.3,0-0.5,0.1-0.6,0.2c-0.2,0.1-0.2,0.3-0.2,0.5c0,0.2,0.1,0.4,0.2,0.6c0.2,0.2,0.4,0.2,0.7,0.2
				h1.7L944.6,271.7L944.6,271.7z"/>
			<path class="st43" d="M940.9,268.1h-0.7v-0.3c0-0.1,0-0.1,0-0.1c0,0,0-0.1,0.1-0.1c0,0,0.1,0,0.1,0c0,0,0.1,0,0.1,0
				c0,0,0.1,0.1,0.1,0.1l0.3-0.2v0.2l-0.3,0.1v0.1h0.3L940.9,268.1L940.9,268.1z M940.5,268v-0.1c0,0,0-0.1,0-0.1c0,0,0,0-0.1,0
				c0,0-0.1,0-0.1,0c0,0,0,0.1,0,0.1v0.1H940.5L940.5,268z"/>
			<path class="st43" d="M940,267.8c0-0.3,0.3-0.6,0.6-0.6c0.3,0,0.6,0.3,0.6,0.6c0,0.3-0.3,0.6-0.6,0.6
				C940.3,268.4,940,268.1,940,267.8 M939.9,267.8c0,0.4,0.3,0.7,0.7,0.7c0.4,0,0.7-0.3,0.7-0.7c0-0.4-0.3-0.7-0.7-0.7
				C940.2,267.1,939.9,267.4,939.9,267.8"/>
		</g>
		<g>
			<polygon class="st43" points="938.8,298.3 945.7,302.7 945.7,304.3 940.2,300.7 940.2,304.9 938.8,304 			"/>
			<polygon class="st43" points="945.7,300 945.7,295.8 947.1,296.7 947.1,302.5 940.2,298 940.2,296.4 			"/>
		</g>
	</g>
</g>
<g>
	<g>
		<path class="st5" d="M965.5,256.4v5.7h-5v-5.7H965.5 M967.4,254.5h-8.8v9.5h8.8V254.5L967.4,254.5z"/>
		<pattern  id="SVGID_14_" xlink:href="#k" patternTransform="matrix(1 0 0 -1 -1620.6699 -18923.9902)">
		</pattern>
		<rect x="958.6" y="254.5" class="st44" width="8.8" height="9.5"/>
	</g>
	<g>
		<path class="st5" d="M926.2,256.2v5.8h-5.3v-5.8H926.2 M928.2,254.3h-9.3v9.7h9.3V254.3L928.2,254.3z"/>
		<pattern  id="SVGID_15_" xlink:href="#k" patternTransform="matrix(1 0 0 -1 -1620.6699 -18923.9902)">
		</pattern>
		<rect x="918.9" y="254.3" class="st45" width="9.3" height="9.7"/>
	</g>
	<g>
		<path class="st5" d="M925.2,285.3v16.4h-3.3v-16.4H925.2 M928.2,282.3h-9.3v22.3h9.3V282.3L928.2,282.3z"/>
		<pattern  id="SVGID_16_" xlink:href="#k" patternTransform="matrix(1 0 0 -1 -1620.6699 -18923.9902)">
		</pattern>
		<rect x="918.9" y="282.3" class="st46" width="9.3" height="22.3"/>
	</g>
	<g>
		<path class="st5" d="M926.1,309v6.9H921V309H926.1 M928.2,306.9h-9.3V318h9.3V306.9L928.2,306.9z"/>
		<pattern  id="SVGID_17_" xlink:href="#k" patternTransform="matrix(1 0 0 -1 -1620.6699 -18923.9902)">
		</pattern>
		<rect x="918.9" y="306.9" class="st47" width="9.3" height="11.2"/>
	</g>
	<g>
		<path class="st5" d="M963.8,286.1v28.2h-1.7v-28.2H963.8 M967.6,282.3h-9.3V318h9.3V282.3L967.6,282.3z"/>
		<pattern  id="SVGID_18_" xlink:href="#k" patternTransform="matrix(1 0 0 -1 -1620.6699 -18923.9902)">
		</pattern>
		<rect x="958.3" y="282.3" class="st48" width="9.3" height="35.7"/>
	</g>
</g>
<line class="st3" x1="949" y1="331.7" x2="759.4" y2="331.7"/>
<line class="st3" x1="921.5" y1="336.9" x2="759.4" y2="336.9"/>
<g>
	<path class="st43" d="M1328.5,338.5v-19h3.5v19H1328.5z"/>
	<path class="st43" d="M1335.6,338.5v-19.6h3.5v19.6H1335.6z"/>
	<path class="st43" d="M1355.2,338.5c-1.4,0-2.5-0.3-3.4-1c-0.9-0.7-1.3-1.9-1.3-3.7v-5.9h-2.3V325h2.3l0.4-3.6h3.1v3.6h3.6v2.9
		h-3.6v5.9c0,0.7,0.1,1.1,0.4,1.3c0.3,0.2,0.8,0.4,1.5,0.4h1.7v3H1355.2z"/>
	<path class="st43" d="M1365.7,338.8c-1.7,0-3-0.5-3.9-1.6c-0.9-1.1-1.4-2.6-1.4-4.6V325h3.5v7.3c0,1.2,0.2,2,0.7,2.7
		c0.5,0.6,1.2,0.9,2.2,0.9c1,0,1.8-0.3,2.4-1c0.6-0.7,0.9-1.6,0.9-2.9v-7h3.5v13.5h-3.1l-0.3-2.3c-0.4,0.8-1,1.4-1.8,1.9
		C1367.6,338.6,1366.7,338.8,1365.7,338.8z"/>
	<path class="st43" d="M1383.6,338.8c-1.3,0-2.5-0.3-3.5-0.9s-1.9-1.4-2.5-2.5c-0.6-1.1-0.9-2.3-0.9-3.7c0-1.4,0.3-2.6,0.9-3.7
		c0.6-1.1,1.4-1.9,2.5-2.5c1-0.6,2.2-0.9,3.5-0.9c1.3,0,2.5,0.3,3.5,0.9c1,0.6,1.9,1.4,2.5,2.5c0.6,1.1,0.9,2.3,0.9,3.7
		c0,1.4-0.3,2.6-0.9,3.7c-0.6,1.1-1.4,1.9-2.5,2.5C1386.1,338.5,1384.9,338.8,1383.6,338.8z M1383.6,335.8c0.9,0,1.7-0.3,2.4-1
		c0.7-0.7,1-1.7,1-3c0-1.3-0.3-2.4-1-3c-0.7-0.7-1.5-1-2.3-1c-0.9,0-1.7,0.3-2.4,1s-1,1.7-1,3c0,1.3,0.3,2.4,1,3
		S1382.7,335.8,1383.6,335.8z"/>
	<path class="st43" d="M1400.1,338.5V325h3.1l0.3,1.8c0.4-0.7,1-1.2,1.7-1.6c0.7-0.4,1.5-0.6,2.5-0.6c2.1,0,3.6,0.8,4.4,2.4
		c0.5-0.7,1.1-1.3,2-1.8s1.7-0.7,2.7-0.7c1.8,0,3.1,0.5,4.1,1.6c0.9,1.1,1.4,2.6,1.4,4.6v7.6h-3.5v-7.3c0-1.2-0.2-2-0.7-2.7
		c-0.4-0.6-1.1-0.9-2.1-0.9c-0.9,0-1.7,0.3-2.3,1c-0.6,0.7-0.9,1.7-0.9,2.9v7h-3.5v-7.3c0-1.2-0.2-2-0.7-2.7
		c-0.5-0.6-1.2-0.9-2.1-0.9c-0.9,0-1.7,0.3-2.2,1c-0.6,0.7-0.9,1.7-0.9,2.9v7H1400.1z"/>
	<path class="st43" d="M1430.2,338.8c-1.2,0-2.1-0.2-2.9-0.6c-0.7-0.4-1.3-0.9-1.7-1.5s-0.5-1.3-0.5-2c0-1.3,0.5-2.3,1.5-3
		c1-0.8,2.4-1.2,4.4-1.2h3.4v-0.3c0-0.9-0.3-1.6-0.8-2s-1.2-0.7-2-0.7c-0.7,0-1.3,0.2-1.8,0.5c-0.5,0.3-0.9,0.8-1,1.5h-3.4
		c0.1-1,0.4-1.8,1-2.6s1.3-1.3,2.2-1.7c0.9-0.4,1.9-0.6,3-0.6c1.9,0,3.4,0.5,4.5,1.4s1.7,2.3,1.7,4.1v8.3h-3l-0.3-2.2
		c-0.4,0.7-1,1.3-1.7,1.8C1432.3,338.6,1431.4,338.8,1430.2,338.8z M1431,336.1c1,0,1.8-0.3,2.3-1c0.6-0.7,0.9-1.5,1-2.4h-3
		c-0.9,0-1.6,0.2-2,0.5c-0.4,0.3-0.6,0.7-0.6,1.2c0,0.5,0.2,0.9,0.6,1.2C1429.9,336,1430.4,336.1,1431,336.1z"/>
	<path class="st43" d="M1447.9,338.8c-1.4,0-2.6-0.3-3.6-0.9c-1.1-0.6-1.9-1.4-2.5-2.5c-0.6-1.1-0.9-2.3-0.9-3.7
		c0-1.4,0.3-2.6,0.9-3.7c0.6-1.1,1.4-1.9,2.5-2.5c1.1-0.6,2.3-0.9,3.6-0.9c1.7,0,3.2,0.4,4.4,1.3c1.2,0.9,1.9,2.1,2.3,3.7h-3.7
		c-0.2-0.7-0.5-1.2-1.1-1.5s-1.2-0.6-1.9-0.6c-1,0-1.8,0.4-2.4,1.1c-0.7,0.7-1,1.7-1,3c0,1.3,0.3,2.3,1,3c0.7,0.7,1.5,1.1,2.4,1.1
		c0.7,0,1.4-0.2,1.9-0.5s0.9-0.9,1.1-1.6h3.7c-0.3,1.5-1.1,2.7-2.3,3.7C1451.1,338.4,1449.6,338.8,1447.9,338.8z"/>
	<path class="st43" d="M1464.2,338.8c-1.4,0-2.6-0.3-3.6-0.9c-1.1-0.6-1.9-1.4-2.5-2.5c-0.6-1.1-0.9-2.3-0.9-3.7
		c0-1.4,0.3-2.6,0.9-3.7c0.6-1.1,1.4-1.9,2.5-2.5c1.1-0.6,2.3-0.9,3.6-0.9c1.7,0,3.2,0.4,4.4,1.3c1.2,0.9,1.9,2.1,2.3,3.7h-3.7
		c-0.2-0.7-0.5-1.2-1.1-1.5s-1.2-0.6-1.9-0.6c-1,0-1.8,0.4-2.4,1.1c-0.7,0.7-1,1.7-1,3c0,1.3,0.3,2.3,1,3c0.7,0.7,1.5,1.1,2.4,1.1
		c0.7,0,1.4-0.2,1.9-0.5s0.9-0.9,1.1-1.6h3.7c-0.3,1.5-1.1,2.7-2.3,3.7C1467.4,338.4,1465.9,338.8,1464.2,338.8z"/>
	<path class="st43" d="M1473.9,338.5v-19.6h3.5v8.2c0.5-0.7,1.1-1.3,1.8-1.8c0.8-0.4,1.7-0.6,2.7-0.6c1.7,0,3,0.5,3.9,1.6
		s1.4,2.6,1.4,4.6v7.6h-3.5v-7.3c0-1.2-0.2-2-0.7-2.7c-0.5-0.6-1.2-0.9-2.2-0.9c-1,0-1.8,0.3-2.4,1c-0.6,0.7-1,1.7-1,2.9v7H1473.9z"
		/>
	<path class="st43" d="M1492.4,322.9c-0.6,0-1.2-0.2-1.6-0.6s-0.6-0.9-0.6-1.4c0-0.6,0.2-1.1,0.6-1.4c0.4-0.4,0.9-0.6,1.6-0.6
		s1.2,0.2,1.6,0.6c0.4,0.4,0.6,0.8,0.6,1.4c0,0.6-0.2,1.1-0.6,1.4S1493,322.9,1492.4,322.9z M1490.6,338.5V325h3.5v13.5H1490.6z"/>
	<path class="st43" d="M1497.7,338.5V325h3.1l0.3,2.3c0.4-0.8,1-1.4,1.8-1.9c0.8-0.5,1.7-0.7,2.8-0.7c1.7,0,3,0.5,3.9,1.6
		c0.9,1.1,1.4,2.6,1.4,4.6v7.6h-3.5v-7.3c0-1.2-0.2-2-0.7-2.7c-0.5-0.6-1.2-0.9-2.2-0.9c-1,0-1.8,0.3-2.4,1
		c-0.6,0.7-0.9,1.7-0.9,2.9v7H1497.7z"/>
	<path class="st43" d="M1518.9,338.8c-1.2,0-2.1-0.2-2.9-0.6c-0.7-0.4-1.3-0.9-1.7-1.5s-0.5-1.3-0.5-2c0-1.3,0.5-2.3,1.5-3
		c1-0.8,2.4-1.2,4.4-1.2h3.4v-0.3c0-0.9-0.3-1.6-0.8-2s-1.2-0.7-2-0.7c-0.7,0-1.3,0.2-1.8,0.5c-0.5,0.3-0.9,0.8-1,1.5h-3.4
		c0.1-1,0.4-1.8,1-2.6s1.3-1.3,2.2-1.7c0.9-0.4,1.9-0.6,3-0.6c1.9,0,3.4,0.5,4.5,1.4s1.7,2.3,1.7,4.1v8.3h-3l-0.3-2.2
		c-0.4,0.7-1,1.3-1.7,1.8C1521,338.6,1520.1,338.8,1518.9,338.8z M1519.7,336.1c1,0,1.8-0.3,2.3-1c0.6-0.7,0.9-1.5,1-2.4h-3
		c-0.9,0-1.6,0.2-2,0.5c-0.4,0.3-0.6,0.7-0.6,1.2c0,0.5,0.2,0.9,0.6,1.2C1518.5,336,1519.1,336.1,1519.7,336.1z"/>
	<path class="st43" d="M1530,338.5V325h3.1l0.3,2.5c0.5-0.9,1.2-1.6,2-2.1c0.8-0.5,1.8-0.8,3-0.8v3.7h-1c-0.8,0-1.4,0.1-2,0.4
		c-0.6,0.2-1.1,0.6-1.4,1.2c-0.3,0.6-0.5,1.4-0.5,2.4v6.1H1530z"/>
	<path class="st43" d="M1542.6,322.9c-0.6,0-1.2-0.2-1.6-0.6s-0.6-0.9-0.6-1.4c0-0.6,0.2-1.1,0.6-1.4c0.4-0.4,0.9-0.6,1.6-0.6
		s1.2,0.2,1.6,0.6c0.4,0.4,0.6,0.8,0.6,1.4c0,0.6-0.2,1.1-0.6,1.4S1543.3,322.9,1542.6,322.9z M1540.9,338.5V325h3.5v13.5H1540.9z"
		/>
	<path class="st43" d="M1554.5,338.8c-1.3,0-2.5-0.3-3.5-0.9s-1.9-1.4-2.5-2.5c-0.6-1.1-0.9-2.3-0.9-3.7c0-1.4,0.3-2.6,0.9-3.7
		c0.6-1.1,1.4-1.9,2.5-2.5c1-0.6,2.2-0.9,3.5-0.9c1.3,0,2.5,0.3,3.5,0.9c1,0.6,1.9,1.4,2.5,2.5c0.6,1.1,0.9,2.3,0.9,3.7
		c0,1.4-0.3,2.6-0.9,3.7c-0.6,1.1-1.4,1.9-2.5,2.5C1557,338.5,1555.8,338.8,1554.5,338.8z M1554.5,335.8c0.9,0,1.7-0.3,2.4-1
		c0.7-0.7,1-1.7,1-3c0-1.3-0.3-2.4-1-3c-0.7-0.7-1.5-1-2.3-1c-0.9,0-1.7,0.3-2.4,1s-1,1.7-1,3c0,1.3,0.3,2.4,1,3
		S1553.6,335.8,1554.5,335.8z"/>
	<path class="st43" d="M1572.9,322.9c-0.6,0-1.2-0.2-1.6-0.6s-0.6-0.9-0.6-1.4c0-0.6,0.2-1.1,0.6-1.4c0.4-0.4,0.9-0.6,1.6-0.6
		s1.2,0.2,1.6,0.6c0.4,0.4,0.6,0.8,0.6,1.4c0,0.6-0.2,1.1-0.6,1.4S1573.5,322.9,1572.9,322.9z M1571.1,338.5V325h3.5v13.5H1571.1z"
		/>
	<path class="st43" d="M1578.2,338.5V325h3.1l0.3,2.3c0.4-0.8,1-1.4,1.8-1.9c0.8-0.5,1.7-0.7,2.8-0.7c1.7,0,3,0.5,3.9,1.6
		c0.9,1.1,1.4,2.6,1.4,4.6v7.6h-3.5v-7.3c0-1.2-0.2-2-0.7-2.7c-0.5-0.6-1.2-0.9-2.2-0.9c-1,0-1.8,0.3-2.4,1
		c-0.6,0.7-0.9,1.7-0.9,2.9v7H1578.2z"/>
	<path class="st43" d="M1601,338.8c-1.3,0-2.4-0.3-3.4-0.9c-1-0.6-1.8-1.5-2.4-2.5c-0.6-1.1-0.9-2.3-0.9-3.6c0-1.4,0.3-2.6,0.9-3.6
		c0.6-1.1,1.4-1.9,2.4-2.5c1-0.6,2.1-0.9,3.4-0.9c1,0,1.9,0.2,2.7,0.6c0.8,0.4,1.4,0.9,1.9,1.6v-7.9h3.5v19.6h-3.1l-0.4-1.9
		c-0.4,0.6-1,1.1-1.7,1.6C1603.1,338.6,1602.1,338.8,1601,338.8z M1601.7,335.8c1.1,0,2-0.4,2.8-1.1c0.7-0.8,1.1-1.7,1.1-2.9
		c0-1.2-0.4-2.1-1.1-2.9c-0.7-0.8-1.6-1.1-2.8-1.1c-1.1,0-2,0.4-2.7,1.1c-0.7,0.7-1.1,1.7-1.1,2.9c0,1.2,0.4,2.1,1.1,2.9
		C1599.7,335.4,1600.6,335.8,1601.7,335.8z"/>
	<path class="st43" d="M1617.6,338.8c-1.7,0-3-0.5-3.9-1.6c-0.9-1.1-1.4-2.6-1.4-4.6V325h3.5v7.3c0,1.2,0.2,2,0.7,2.7
		c0.5,0.6,1.2,0.9,2.2,0.9c1,0,1.8-0.3,2.4-1c0.6-0.7,0.9-1.6,0.9-2.9v-7h3.5v13.5h-3.1l-0.3-2.3c-0.4,0.8-1,1.4-1.8,1.9
		C1619.6,338.6,1618.6,338.8,1617.6,338.8z"/>
	<path class="st43" d="M1634.6,338.8c-1.2,0-2.2-0.2-3.2-0.6c-0.9-0.4-1.6-0.9-2.2-1.6c-0.5-0.7-0.9-1.5-1-2.4h3.5
		c0.1,0.5,0.4,1,0.9,1.3c0.5,0.4,1.1,0.6,1.9,0.6s1.3-0.2,1.7-0.5c0.4-0.3,0.5-0.7,0.5-1.1c0-0.6-0.3-1-0.8-1.2
		c-0.5-0.2-1.2-0.4-2.1-0.6c-0.6-0.1-1.2-0.3-1.8-0.5c-0.6-0.2-1.1-0.4-1.6-0.7c-0.5-0.3-0.9-0.6-1.2-1.1c-0.3-0.4-0.5-1-0.5-1.6
		c0-1.2,0.5-2.2,1.4-3c1-0.8,2.3-1.2,4-1.2c1.6,0,2.9,0.4,3.8,1.1c1,0.7,1.5,1.8,1.7,3.1h-3.3c-0.2-1-1-1.5-2.3-1.5
		c-0.7,0-1.2,0.1-1.5,0.4c-0.4,0.3-0.5,0.6-0.5,1c0,0.4,0.3,0.7,0.8,1c0.5,0.2,1.2,0.5,2.1,0.7c0.9,0.2,1.8,0.5,2.6,0.7
		s1.4,0.7,1.9,1.2c0.5,0.5,0.7,1.3,0.7,2.2c0,0.8-0.2,1.6-0.7,2.3c-0.5,0.7-1.1,1.2-2,1.6C1636.8,338.6,1635.8,338.8,1634.6,338.8z"
		/>
	<path class="st43" d="M1648.9,338.5c-1.4,0-2.5-0.3-3.4-1c-0.9-0.7-1.3-1.9-1.3-3.7v-5.9h-2.3V325h2.3l0.4-3.6h3.1v3.6h3.6v2.9
		h-3.6v5.9c0,0.7,0.1,1.1,0.4,1.3c0.3,0.2,0.8,0.4,1.5,0.4h1.7v3H1648.9z"/>
	<path class="st43" d="M1654.4,338.5V325h3.1l0.3,2.5c0.5-0.9,1.2-1.6,2-2.1c0.8-0.5,1.8-0.8,3-0.8v3.7h-1c-0.8,0-1.4,0.1-2,0.4
		c-0.6,0.2-1.1,0.6-1.4,1.2c-0.3,0.6-0.5,1.4-0.5,2.4v6.1H1654.4z"/>
	<path class="st43" d="M1667,322.9c-0.6,0-1.2-0.2-1.6-0.6s-0.6-0.9-0.6-1.4c0-0.6,0.2-1.1,0.6-1.4c0.4-0.4,0.9-0.6,1.6-0.6
		s1.2,0.2,1.6,0.6c0.4,0.4,0.6,0.8,0.6,1.4c0,0.6-0.2,1.1-0.6,1.4S1667.7,322.9,1667,322.9z M1665.3,338.5V325h3.5v13.5H1665.3z"/>
	<path class="st43" d="M1677.1,338.8c-1.2,0-2.1-0.2-2.9-0.6c-0.7-0.4-1.3-0.9-1.7-1.5s-0.5-1.3-0.5-2c0-1.3,0.5-2.3,1.5-3
		c1-0.8,2.4-1.2,4.4-1.2h3.4v-0.3c0-0.9-0.3-1.6-0.8-2s-1.2-0.7-2-0.7c-0.7,0-1.3,0.2-1.8,0.5c-0.5,0.3-0.9,0.8-1,1.5h-3.4
		c0.1-1,0.4-1.8,1-2.6s1.3-1.3,2.2-1.7c0.9-0.4,1.9-0.6,3-0.6c1.9,0,3.4,0.5,4.5,1.4s1.7,2.3,1.7,4.1v8.3h-3l-0.3-2.2
		c-0.4,0.7-1,1.3-1.7,1.8C1679.1,338.6,1678.2,338.8,1677.1,338.8z M1677.9,336.1c1,0,1.8-0.3,2.3-1c0.6-0.7,0.9-1.5,1-2.4h-3
		c-0.9,0-1.6,0.2-2,0.5c-0.4,0.3-0.6,0.7-0.6,1.2c0,0.5,0.2,0.9,0.6,1.2C1676.7,336,1677.2,336.1,1677.9,336.1z"/>
	<path class="st43" d="M1688.1,338.5v-19.6h3.5v19.6H1688.1z"/>
	<path class="st43" d="M1701.7,338.8c-1.4,0-2.6-0.3-3.6-0.9c-1.1-0.6-1.9-1.4-2.5-2.4c-0.6-1.1-0.9-2.3-0.9-3.6
		c0-1.4,0.3-2.6,0.9-3.7c0.6-1.1,1.4-1.9,2.4-2.5c1-0.6,2.3-0.9,3.7-0.9c1.3,0,2.5,0.3,3.5,0.9s1.8,1.4,2.4,2.4
		c0.6,1,0.9,2.1,0.9,3.4c0,0.2,0,0.4,0,0.6c0,0.2,0,0.4,0,0.7h-10.3c0.1,1.1,0.4,1.9,1.1,2.5s1.5,0.9,2.4,0.9c0.7,0,1.3-0.2,1.8-0.5
		s0.8-0.7,1.1-1.2h3.5c-0.3,0.9-0.7,1.6-1.3,2.3s-1.3,1.2-2.2,1.6C1703.8,338.6,1702.8,338.8,1701.7,338.8z M1701.7,327.5
		c-0.9,0-1.6,0.2-2.3,0.7c-0.7,0.5-1.1,1.2-1.3,2.2h6.7c-0.1-0.9-0.4-1.6-1-2.1S1702.6,327.5,1701.7,327.5z"/>
	<path class="st43" d="M1335,371.5c-1.4,0-2.6-0.3-3.6-0.9c-1.1-0.6-1.9-1.4-2.5-2.5c-0.6-1.1-0.9-2.3-0.9-3.7
		c0-1.4,0.3-2.6,0.9-3.7c0.6-1.1,1.4-1.9,2.5-2.5c1.1-0.6,2.3-0.9,3.6-0.9c1.7,0,3.2,0.4,4.4,1.3c1.2,0.9,1.9,2.1,2.3,3.7h-3.7
		c-0.2-0.7-0.5-1.2-1.1-1.5c-0.5-0.4-1.2-0.6-1.9-0.6c-1,0-1.8,0.4-2.4,1.1c-0.7,0.7-1,1.7-1,3c0,1.3,0.3,2.3,1,3
		c0.7,0.7,1.5,1.1,2.4,1.1c0.7,0,1.4-0.2,1.9-0.5c0.5-0.4,0.9-0.9,1.1-1.6h3.7c-0.3,1.5-1.1,2.7-2.3,3.7
		C1338.2,371,1336.8,371.5,1335,371.5z"/>
	<path class="st43" d="M1351.2,371.5c-1.3,0-2.5-0.3-3.5-0.9s-1.9-1.4-2.5-2.5c-0.6-1.1-0.9-2.3-0.9-3.7c0-1.4,0.3-2.6,0.9-3.7
		c0.6-1.1,1.4-1.9,2.5-2.5c1-0.6,2.2-0.9,3.5-0.9c1.3,0,2.5,0.3,3.5,0.9c1,0.6,1.9,1.4,2.5,2.5c0.6,1.1,0.9,2.3,0.9,3.7
		c0,1.4-0.3,2.6-0.9,3.7c-0.6,1.1-1.4,1.9-2.5,2.5C1353.7,371.2,1352.5,371.5,1351.2,371.5z M1351.2,368.5c0.9,0,1.7-0.3,2.4-1
		c0.7-0.7,1-1.7,1-3c0-1.3-0.3-2.4-1-3c-0.7-0.7-1.5-1-2.3-1c-0.9,0-1.7,0.3-2.4,1c-0.7,0.7-1,1.7-1,3c0,1.3,0.3,2.4,1,3
		C1349.5,368.1,1350.3,368.5,1351.2,368.5z"/>
	<path class="st43" d="M1361.2,371.2v-13.5h3.1l0.3,2.3c0.4-0.8,1-1.4,1.8-1.9c0.8-0.5,1.7-0.7,2.8-0.7c1.7,0,3,0.5,3.9,1.6
		c0.9,1.1,1.4,2.6,1.4,4.6v7.6h-3.5v-7.3c0-1.2-0.2-2-0.7-2.7c-0.5-0.6-1.2-0.9-2.2-0.9c-1,0-1.8,0.3-2.4,1
		c-0.6,0.7-0.9,1.7-0.9,2.9v7H1361.2z"/>
	<path class="st43" d="M1383.8,371.2v-2.7l8.8-13.5h-8.7v-2.9h12.7v2.7l-8.8,13.5h8.9v2.9H1383.8z"/>
	<path class="st43" d="M1406.2,371.5c-1.4,0-2.6-0.3-3.6-0.9c-1.1-0.6-1.9-1.4-2.5-2.4c-0.6-1.1-0.9-2.3-0.9-3.6
		c0-1.4,0.3-2.6,0.9-3.7c0.6-1.1,1.4-1.9,2.4-2.5s2.3-0.9,3.7-0.9c1.3,0,2.5,0.3,3.5,0.9c1,0.6,1.8,1.4,2.4,2.4s0.9,2.1,0.9,3.4
		c0,0.2,0,0.4,0,0.6c0,0.2,0,0.4,0,0.7h-10.3c0.1,1.1,0.4,1.9,1.1,2.5s1.5,0.9,2.4,0.9c0.7,0,1.3-0.2,1.8-0.5s0.8-0.7,1.1-1.2h3.5
		c-0.3,0.9-0.7,1.6-1.3,2.3s-1.3,1.2-2.2,1.6S1407.3,371.5,1406.2,371.5z M1406.2,360.2c-0.9,0-1.6,0.2-2.3,0.7
		c-0.7,0.5-1.1,1.2-1.3,2.2h6.7c-0.1-0.9-0.4-1.6-1-2.1C1407.9,360.4,1407.1,360.2,1406.2,360.2z"/>
	<path class="st43" d="M1415.9,371.2v-13.5h3.1l0.3,2.5c0.5-0.9,1.2-1.6,2-2.1c0.8-0.5,1.8-0.8,3-0.8v3.7h-1c-0.8,0-1.4,0.1-2,0.4
		c-0.6,0.2-1.1,0.6-1.4,1.2c-0.3,0.6-0.5,1.4-0.5,2.4v6.1H1415.9z"/>
	<path class="st43" d="M1428.4,377.1l3.1-6.9h-0.8l-5.3-12.6h3.8l3.8,9.5l3.9-9.5h3.7l-8.6,19.5H1428.4z"/>
	<path class="st43" d="M1442.9,371.2v-13.5h3.1l0.3,2.3c0.4-0.8,1-1.4,1.8-1.9c0.8-0.5,1.7-0.7,2.8-0.7c1.7,0,3,0.5,3.9,1.6
		c0.9,1.1,1.4,2.6,1.4,4.6v7.6h-3.5v-7.3c0-1.2-0.2-2-0.7-2.7c-0.5-0.6-1.2-0.9-2.2-0.9c-1,0-1.8,0.3-2.4,1
		c-0.6,0.7-0.9,1.7-0.9,2.9v7H1442.9z"/>
	<path class="st43" d="M1465.5,371.2c-1.4,0-2.5-0.3-3.4-1c-0.9-0.7-1.3-1.9-1.3-3.7v-5.9h-2.3v-2.9h2.3l0.4-3.6h3.1v3.6h3.6v2.9
		h-3.6v5.9c0,0.7,0.1,1.1,0.4,1.3s0.8,0.4,1.5,0.4h1.7v3H1465.5z"/>
	<path class="st43" d="M1470.9,371.2v-19.6h3.5v8.2c0.5-0.7,1.1-1.3,1.8-1.8c0.8-0.4,1.7-0.6,2.7-0.6c1.7,0,3,0.5,3.9,1.6
		s1.4,2.6,1.4,4.6v7.6h-3.5v-7.3c0-1.2-0.2-2-0.7-2.7c-0.5-0.6-1.2-0.9-2.2-0.9c-1,0-1.8,0.3-2.4,1c-0.6,0.7-1,1.7-1,2.9v7H1470.9z"
		/>
</g>
</svg>
